<?xml version="1.0" standalone="no"?>
<!DOCTYPE svg PUBLIC "-//W3C//DTD SVG 20010904//EN"
 "http://www.w3.org/TR/2001/REC-SVG-20010904/DTD/svg10.dtd">
<svg version="1.0" xmlns="http://www.w3.org/2000/svg"
 width="1152.000000pt" height="483.000000pt" viewBox="0 0 1152.000000 483.000000"
 preserveAspectRatio="xMidYMid meet">
<metadata>
Created by potrace 1.16, written by Peter Selinger 2001-2019
</metadata>
<g transform="translate(0.000000,483.000000) scale(0.100000,-0.100000)"
fill="#000000" stroke="none">
<path d="M5310 4696 c-123 -20 -215 -53 -347 -126 -24 -13 -43 -27 -43 -32 0
-4 -7 -8 -15 -8 -9 0 -39 -17 -68 -39 -29 -21 -62 -42 -74 -46 -13 -3 -23 -11
-23 -16 0 -5 -7 -9 -16 -9 -17 0 -107 -50 -112 -62 -2 -5 -20 -18 -40 -29 -21
-11 -50 -28 -67 -39 -16 -11 -59 -35 -95 -55 -36 -19 -83 -47 -105 -60 -22
-14 -47 -28 -55 -32 -22 -10 -114 -77 -118 -85 -2 -5 -10 -8 -18 -8 -8 0 -32
-9 -54 -20 -32 -16 -59 -20 -146 -20 -200 0 -702 -76 -869 -131 -33 -11 -73
-24 -90 -29 -49 -13 -101 -38 -115 -54 -7 -9 -17 -16 -22 -16 -5 0 -36 -18
-69 -40 -33 -22 -64 -40 -69 -40 -5 0 -13 -6 -17 -13 -4 -7 -20 -20 -35 -30
l-28 -17 0 -149 c0 -148 0 -149 -23 -155 -35 -8 -84 -56 -102 -98 -19 -47 -19
-128 0 -154 8 -10 15 -24 15 -31 0 -21 48 -61 80 -68 26 -6 30 -11 30 -39 0
-37 14 -47 95 -66 28 -7 74 -21 103 -31 46 -17 83 -19 295 -19 l243 0 -4 122
c-4 109 -2 130 19 193 36 106 71 158 182 268 32 31 67 57 77 57 10 0 31 7 47
15 75 39 125 55 177 55 l56 0 0 -100 c0 -72 -4 -102 -12 -104 -7 -2 -42 -12
-78 -22 -36 -10 -76 -24 -90 -31 -14 -7 -30 -13 -35 -13 -26 0 -165 -133 -165
-157 0 -8 -10 -27 -21 -42 -22 -30 -59 -164 -59 -215 0 -81 67 -254 122 -317
27 -29 123 -94 156 -104 12 -3 22 -10 22 -14 0 -20 91 -36 200 -35 108 1 119
3 180 32 81 40 161 98 191 137 13 17 26 32 30 35 22 17 57 116 67 190 17 126
-2 241 -53 318 -43 64 -128 151 -169 170 -67 32 -168 62 -205 62 -20 0 -21 5
-21 105 l0 105 38 0 c39 0 167 -41 185 -59 6 -6 17 -11 25 -11 33 0 153 -107
191 -171 81 -135 111 -262 94 -392 -5 -37 -7 -69 -5 -72 3 -3 117 -5 253 -5
l248 0 3 -117 3 -118 218 -3 217 -2 0 -500 0 -500 -35 0 -35 0 0 -645 0 -645
-1640 0 -1640 0 0 -80 0 -80 3535 0 3535 0 0 80 0 80 -1592 2 -1593 3 -3 643
-2 642 -35 0 -35 0 0 500 0 500 223 2 222 3 3 118 3 117 137 0 137 0 -3 120
c-3 109 -1 128 23 197 35 103 48 121 172 246 42 42 85 77 96 77 10 0 31 6 45
14 30 15 111 41 160 51 l32 7 0 -104 0 -103 -108 -35 c-59 -19 -114 -40 -122
-47 -63 -50 -80 -67 -80 -79 0 -7 -9 -18 -20 -24 -11 -6 -20 -16 -20 -22 0 -6
-11 -25 -24 -43 -13 -17 -34 -64 -46 -104 -26 -85 -25 -205 3 -260 9 -19 17
-38 17 -44 0 -14 72 -127 81 -127 5 0 9 -7 9 -15 0 -9 8 -19 18 -22 9 -4 21
-12 25 -20 4 -7 14 -13 21 -13 8 0 19 -6 25 -14 7 -8 42 -29 79 -47 63 -30 74
-32 187 -33 112 -1 124 1 185 29 63 28 209 131 210 148 0 5 11 23 25 41 14 18
25 38 25 44 0 6 10 28 22 48 20 34 22 52 22 158 0 105 -3 128 -24 171 -49 106
-158 224 -234 253 -72 28 -155 52 -177 52 -17 0 -19 9 -19 105 0 95 2 105 18
105 31 0 240 -67 252 -81 3 -3 26 -20 52 -37 50 -34 168 -171 168 -194 0 -8
12 -43 26 -79 23 -57 26 -76 26 -191 l-1 -128 320 0 c308 0 319 1 331 20 7 11
16 20 21 20 4 0 24 12 43 28 27 22 34 34 34 63 0 31 4 38 25 43 14 4 25 11 25
16 0 6 7 10 15 10 9 0 19 8 22 18 4 9 15 28 25 41 13 18 18 41 18 92 0 59 -4
74 -29 111 -16 24 -47 53 -68 65 l-39 22 1 236 1 235 -2353 0 c-1562 0 -2353
3 -2353 10 0 6 65 10 176 10 157 0 178 2 190 18 7 9 14 25 14 35 0 9 7 17 15
17 8 0 19 9 25 20 6 11 17 20 24 20 7 0 21 9 31 20 9 10 38 27 64 36 25 10 53
25 61 34 8 9 32 25 53 35 20 11 37 23 37 27 0 5 9 8 20 8 11 0 20 4 20 9 0 5
13 14 29 21 16 6 37 19 48 28 10 9 45 31 77 47 93 47 108 56 163 97 29 21 55
38 59 38 3 0 18 8 32 19 15 10 39 21 55 25 15 3 27 11 27 16 0 6 7 10 15 10 8
0 24 9 35 20 11 11 28 20 38 20 10 0 26 6 37 14 20 14 113 41 196 57 25 5 151
8 279 7 l233 -3 -3 -300 c-2 -165 -4 -320 -4 -345 l-1 -45 125 0 125 0 2 325
c1 179 2 331 2 338 1 9 88 12 400 12 395 0 399 0 427 -22 37 -28 124 -117 124
-126 0 -4 8 -15 18 -24 9 -8 37 -43 60 -76 24 -34 57 -76 73 -94 16 -18 29
-37 29 -41 0 -5 9 -20 20 -34 11 -14 20 -36 20 -48 0 -12 9 -30 20 -40 11 -10
20 -23 20 -30 0 -6 9 -30 20 -53 11 -22 20 -53 20 -67 l0 -25 575 0 c363 0
575 4 575 10 0 5 -9 14 -20 20 -11 6 -20 16 -20 23 0 7 -18 25 -40 41 -22 17
-40 35 -40 40 0 6 -18 20 -40 30 -22 10 -47 27 -56 38 -10 10 -23 18 -31 18
-7 0 -13 3 -13 8 0 4 -17 18 -37 32 -21 14 -45 32 -54 40 -39 33 -50 41 -102
64 -30 14 -60 32 -67 41 -7 8 -18 15 -25 15 -6 0 -20 9 -30 20 -10 11 -23 20
-28 20 -6 0 -25 11 -43 25 -18 14 -36 25 -41 25 -4 0 -19 9 -33 20 -14 11 -35
20 -47 20 -13 0 -23 4 -23 9 0 4 -48 32 -107 62 -60 29 -110 56 -113 59 -11
12 -113 60 -128 60 -10 0 -30 7 -47 16 -62 33 -132 57 -200 70 -97 18 -1683
18 -1795 0z m-2012 -880 c31 -16 52 -53 52 -91 0 -29 -29 -105 -40 -105 -4 0
-13 -13 -18 -30 -7 -18 -29 -41 -58 -60 -43 -27 -56 -30 -129 -30 -103 0 -257
47 -352 107 -21 14 -21 15 -2 34 10 10 24 19 30 19 6 0 32 15 58 33 42 31 79
51 196 104 91 41 204 49 263 19z m5098 -41 c18 -27 25 -172 11 -237 -10 -46
-35 -57 -60 -27 -16 20 -18 38 -15 140 2 79 7 121 17 132 18 23 28 21 47 -8z"/>
<path d="M2298 2842 c-52 -19 -118 -67 -118 -87 0 -7 -10 -25 -21 -40 -19 -23
-22 -40 -22 -111 0 -73 3 -88 22 -107 11 -13 21 -28 21 -35 0 -19 48 -61 98
-84 59 -28 143 -30 191 -5 19 9 38 17 44 17 5 0 31 23 57 51 41 44 49 59 55
106 9 77 -3 167 -26 192 -10 11 -19 25 -19 31 0 6 -11 15 -25 20 -14 5 -25 14
-25 19 0 13 -117 51 -154 50 -17 0 -52 -8 -78 -17z"/>
<path d="M2873 2750 c-18 -11 -33 -26 -33 -34 0 -7 -7 -20 -16 -27 -9 -7 -20
-22 -25 -34 -5 -11 -21 -36 -34 -55 -14 -19 -31 -43 -38 -54 -6 -10 -24 -32
-39 -50 -15 -17 -28 -35 -28 -39 0 -4 -9 -17 -20 -29 -11 -12 -20 -29 -20 -38
0 -24 -20 -40 -50 -40 -31 0 -122 -31 -143 -49 -9 -7 -27 -34 -41 -61 l-26
-50 0 -303 c0 -289 1 -306 20 -330 11 -14 20 -29 20 -34 0 -10 184 -163 195
-163 4 0 23 -17 44 -37 21 -21 53 -49 71 -63 19 -14 49 -40 68 -57 18 -18 40
-33 48 -33 8 0 14 -7 14 -15 0 -8 5 -15 10 -15 6 0 20 -12 33 -26 22 -25 37
-76 107 -364 17 -69 39 -156 49 -195 11 -38 22 -82 25 -97 16 -70 158 -107
211 -54 37 37 51 97 36 159 -7 29 -16 81 -21 117 -4 36 -18 91 -29 122 -12 32
-21 68 -21 81 0 13 -9 50 -20 82 -11 32 -20 67 -20 78 0 22 -46 176 -63 215
-6 13 -40 54 -76 91 -37 37 -97 100 -135 139 -37 40 -72 72 -77 72 -5 0 -9 5
-9 11 0 7 -16 26 -35 45 l-35 33 0 195 0 196 43 0 c63 0 208 19 238 31 24 9
76 65 104 110 6 9 24 35 40 59 17 24 35 50 40 58 6 9 20 26 33 38 12 11 22 26
22 32 0 16 61 109 98 152 17 19 33 48 36 65 8 39 -2 91 -20 106 -23 19 -83 28
-120 17 -34 -9 -40 -16 -116 -126 -13 -18 -42 -58 -65 -89 -24 -31 -43 -62
-43 -69 0 -7 -6 -19 -14 -26 -7 -8 -21 -28 -30 -46 -9 -18 -21 -32 -26 -32 -6
0 -10 -7 -10 -15 0 -24 -35 -35 -110 -35 -69 0 -70 0 -58 21 41 68 91 144 97
149 4 3 15 19 25 35 11 17 25 34 33 38 7 4 13 15 13 22 0 8 4 15 8 15 13 0 62
94 62 118 0 30 -31 79 -58 91 -35 17 -84 13 -119 -9z"/>
<path d="M2440 1253 c0 -54 -7 -206 -15 -338 -27 -427 -22 -480 56 -536 78
-55 162 -18 192 84 18 60 37 353 37 565 0 129 -2 142 -17 142 -10 0 -33 14
-50 30 -38 36 -188 150 -197 150 -3 0 -6 -44 -6 -97z"/>
</g>
</svg>
