<?xml version="1.0" standalone="no"?>
<!DOCTYPE svg PUBLIC "-//W3C//DTD SVG 20010904//EN"
 "http://www.w3.org/TR/2001/REC-SVG-20010904/DTD/svg10.dtd">
<svg version="1.0" xmlns="http://www.w3.org/2000/svg"
 width="1152.000000pt" height="483.000000pt" viewBox="0 0 1152.000000 483.000000"
 preserveAspectRatio="xMidYMid meet">
<metadata>
Created by potrace 1.16, written by Peter Selinger 2001-2019
</metadata>
<g transform="translate(0.000000,483.000000) scale(0.100000,-0.100000)"
fill="#000000" stroke="none">
<path d="M5680 3540 l0 -550 875 0 875 0 0 550 0 550 -875 0 -875 0 0 -550z
m1590 5 l0 -395 -715 0 -715 0 0 393 0 393 715 2 715 1 0 -394z"/>
<path d="M6673 3855 c-7 -8 -13 -17 -13 -20 0 -4 -7 -13 -15 -21 -8 -9 -18
-27 -21 -42 -4 -15 -26 -52 -50 -84 -24 -31 -44 -59 -44 -63 0 -4 -10 -21 -22
-38 -25 -35 -43 -64 -54 -87 -4 -8 -10 -17 -14 -20 -3 -3 -13 -17 -23 -32 -10
-16 -22 -28 -28 -28 -6 0 -32 22 -57 49 l-47 50 -100 -10 c-55 -6 -136 -12
-180 -15 -103 -6 -125 -11 -125 -29 0 -20 18 -23 177 -31 l141 -6 74 -72 c41
-39 90 -90 109 -113 l35 -41 24 44 c14 24 28 44 32 44 5 0 8 5 8 11 0 12 77
139 89 149 15 11 51 69 51 82 1 7 14 29 31 48 29 34 31 34 45 15 8 -11 29 -50
47 -87 l32 -68 40 5 c43 6 323 25 368 25 22 0 27 5 27 23 0 23 -4 24 -97 30
-54 4 -124 7 -155 7 -49 0 -61 4 -83 27 -14 15 -25 33 -25 40 0 7 -4 13 -10
13 -5 0 -10 5 -10 12 0 6 -6 19 -14 27 -7 9 -37 62 -66 119 -30 56 -56 102
-59 102 -3 -1 -12 -7 -18 -15z"/>
<path d="M4962 3289 c-37 -11 -52 -22 -130 -100 -92 -92 -158 -170 -204 -244
-14 -22 -40 -56 -58 -75 -18 -19 -48 -57 -67 -85 -19 -27 -52 -75 -74 -105
-22 -30 -56 -79 -75 -107 -19 -29 -39 -53 -44 -53 -6 0 -10 -5 -10 -11 0 -6
-20 -34 -43 -62 -24 -29 -47 -60 -50 -69 -4 -10 -13 -18 -22 -18 -21 0 -228
70 -490 165 -55 20 -120 44 -145 52 -25 9 -49 19 -55 23 -5 5 -50 16 -100 25
-49 9 -106 20 -126 26 -20 5 -55 9 -78 9 -22 0 -41 5 -41 10 0 6 -9 10 -20 10
-19 0 -21 -5 -18 -67 l3 -68 90 -7 c79 -7 270 -56 300 -78 6 -4 33 -13 60 -20
28 -7 55 -17 61 -21 13 -10 140 -55 202 -72 23 -6 42 -15 42 -18 0 -4 29 -15
64 -24 36 -10 80 -30 98 -45 29 -25 32 -31 23 -56 -6 -17 -20 -30 -35 -34 -14
-3 -137 -3 -275 1 -137 4 -337 7 -442 8 l-193 1 0 -500 0 -500 569 0 570 0 65
-64 c36 -35 81 -70 100 -77 20 -7 36 -17 36 -21 0 -4 7 -8 15 -8 8 0 15 -4 15
-10 0 -6 -239 -11 -682 -12 l-683 -3 -3 -62 -3 -63 1831 0 1831 0 -3 63 -3 62
-972 3 c-535 1 -973 6 -973 10 0 5 19 19 43 32 66 36 151 108 160 135 2 6 93
12 228 16 219 6 225 6 274 33 58 30 80 65 95 145 16 88 14 235 -4 262 -12 20
-13 40 -7 111 10 107 3 183 -19 223 -9 16 -39 43 -66 59 -54 32 -226 95 -261
96 -13 0 -23 3 -23 8 0 8 -57 22 -195 48 -49 9 -101 21 -115 26 l-25 10 35 16
c19 10 53 23 75 31 51 17 100 68 113 114 11 39 2 100 -23 154 -8 17 -15 36
-15 42 0 6 -4 11 -9 11 -15 0 -34 104 -27 145 11 56 51 69 201 68 66 -1 153
-4 193 -8 l72 -7 0 62 0 62 -67 -6 c-319 -26 -341 -29 -399 -62 -59 -35 -82
-66 -90 -123 -6 -46 -3 -58 45 -154 28 -57 51 -117 51 -134 0 -39 -38 -86 -82
-103 -18 -6 -51 -20 -73 -30 -22 -10 -57 -23 -77 -30 -21 -6 -40 -16 -43 -21
-4 -5 -13 -5 -23 0 -9 4 -53 14 -97 21 -44 7 -112 21 -151 30 -40 10 -93 22
-118 25 -25 4 -46 12 -46 17 0 6 30 49 68 97 37 47 83 109 102 136 36 52 56
78 78 100 6 8 12 18 12 23 0 10 63 95 123 166 17 21 36 46 41 55 17 31 119
161 126 161 4 0 10 10 14 23 5 23 30 57 79 109 15 17 27 34 27 39 0 6 9 20 21
32 l20 22 -23 7 c-30 8 -37 8 -76 -3z m-238 -1571 c53 -16 103 -45 149 -85
102 -89 101 -328 -1 -418 -66 -59 -134 -87 -215 -88 -40 0 -90 5 -112 11 -53
16 -133 77 -170 132 -29 43 -30 49 -30 152 0 72 4 111 13 119 6 7 12 20 12 29
0 17 68 86 114 114 68 42 165 56 240 34z"/>
<path d="M5579 2903 c-4 -56 2 -137 11 -148 11 -13 140 -15 965 -15 1095 0
985 -12 985 103 l0 67 -980 0 c-539 0 -980 -3 -981 -7z"/>
</g>
</svg>
