<?xml version="1.0" standalone="no"?>
<!DOCTYPE svg PUBLIC "-//W3C//DTD SVG 20010904//EN"
 "http://www.w3.org/TR/2001/REC-SVG-20010904/DTD/svg10.dtd">
<svg version="1.0" xmlns="http://www.w3.org/2000/svg"
 width="1152.000000pt" height="483.000000pt" viewBox="0 0 1152.000000 483.000000"
 preserveAspectRatio="xMidYMid meet">
<metadata>
Created by potrace 1.16, written by Peter Selinger 2001-2019
</metadata>
<g transform="translate(0.000000,483.000000) scale(0.100000,-0.100000)"
fill="#000000" stroke="none">
<path d="M5657 3969 c-10 -6 -30 -8 -45 -4 -24 5 -30 2 -39 -22 -11 -27 -11
-27 -18 -6 -9 28 -31 36 -49 18 -18 -18 -43 -19 -48 -3 -5 15 -38 -13 -38 -31
0 -14 -13 -14 -27 0 -9 9 -19 9 -40 0 -16 -6 -40 -10 -53 -9 -19 2 -26 -2 -28
-20 -3 -19 -6 -21 -18 -11 -11 9 -24 9 -57 -1 -23 -7 -48 -14 -54 -16 -7 -2
-13 -13 -13 -24 0 -23 -4 -24 -31 -9 -16 8 -25 7 -38 -5 -10 -9 -30 -16 -44
-16 -26 0 -31 -7 -28 -42 3 -22 -6 -23 -25 -3 -19 18 -38 11 -52 -21 -8 -16
-20 -24 -38 -24 -24 0 -25 -3 -19 -27 5 -23 4 -26 -6 -15 -19 18 -50 15 -56
-7 -3 -11 -15 -21 -27 -23 -16 -2 -22 -11 -24 -41 -3 -34 -5 -36 -19 -22 -21
22 -47 15 -51 -14 -3 -15 -14 -27 -34 -35 -23 -8 -28 -16 -25 -33 4 -19 1 -22
-19 -17 -18 5 -26 0 -38 -24 -9 -17 -25 -33 -36 -37 -23 -7 -26 -35 -7 -54 10
-10 7 -11 -14 -6 -23 6 -30 1 -48 -29 -12 -19 -27 -37 -34 -39 -9 -3 -9 -9 1
-26 16 -28 16 -28 -18 -23 -28 4 -30 2 -30 -26 0 -21 -8 -36 -26 -49 -23 -17
-25 -22 -15 -41 10 -19 9 -22 -9 -22 -14 0 -20 -7 -20 -24 0 -13 -11 -34 -25
-47 -29 -28 -31 -44 -7 -54 15 -7 14 -9 -8 -14 -18 -5 -26 -16 -31 -41 -4 -19
-14 -39 -23 -46 -22 -16 -20 -31 7 -46 l22 -12 -25 -6 c-17 -4 -26 -15 -31
-38 -3 -17 -12 -39 -19 -47 -15 -18 -6 -45 15 -45 8 0 15 -4 15 -10 0 -5 -9
-10 -20 -10 -16 0 -20 -7 -20 -35 0 -19 -6 -44 -12 -56 -11 -17 -10 -22 5 -33
15 -12 15 -15 2 -26 -19 -16 -22 -140 -2 -140 6 0 4 -5 -6 -11 -23 -14 -133 5
-194 32 -23 11 -48 19 -55 19 -8 0 -19 5 -25 11 -14 14 -52 36 -75 45 -10 3
-18 10 -18 15 0 5 -6 9 -13 9 -7 0 -30 16 -51 35 -21 19 -41 35 -45 35 -3 0
-12 9 -19 20 -7 11 -19 20 -27 20 -8 0 -31 11 -51 25 -21 14 -48 28 -61 31
-13 4 -23 10 -23 14 0 8 -18 11 -129 26 -52 7 -190 -11 -201 -25 -3 -4 -25
-17 -50 -29 -57 -28 -83 -45 -160 -104 -34 -27 -66 -48 -71 -48 -5 0 -9 -5 -9
-11 0 -6 -27 -38 -59 -71 -59 -61 -91 -127 -78 -163 7 -17 54 -20 101 -6 70
21 213 51 239 51 15 0 27 4 27 9 0 15 98 34 143 28 23 -3 46 -12 52 -19 6 -7
19 -18 30 -24 11 -6 34 -35 51 -63 29 -48 32 -63 39 -166 9 -142 -1 -241 -26
-266 -11 -11 -19 -22 -19 -27 0 -10 -115 -46 -215 -67 -44 -10 -110 -26 -147
-36 -36 -11 -75 -19 -86 -19 -31 0 -36 -17 -13 -46 23 -29 86 -74 105 -74 6 0
39 -8 72 -19 210 -66 523 -34 632 66 20 18 38 33 41 33 9 0 101 85 101 93 0
14 104 107 120 107 9 0 22 6 28 13 21 20 640 28 2067 25 1223 -3 1313 -4 1349
-20 21 -10 47 -18 58 -18 18 0 60 -23 85 -46 6 -6 35 -26 65 -45 29 -18 75
-50 101 -71 27 -21 57 -38 66 -38 10 0 28 -8 39 -19 13 -10 53 -23 94 -30 61
-11 83 -10 137 3 35 8 67 19 70 24 3 5 35 25 71 44 118 63 184 111 255 183 77
78 89 95 100 144 6 30 5 33 -11 27 -11 -4 -41 -12 -69 -19 -27 -6 -52 -14 -55
-19 -5 -6 -105 -35 -243 -69 -21 -5 -50 -6 -65 -2 -36 9 -92 45 -92 60 0 7
-12 29 -26 50 -58 86 -75 140 -76 242 -1 105 9 135 58 184 15 15 39 30 53 33
73 16 131 36 131 44 0 6 12 10 28 10 15 1 52 9 82 20 30 11 65 19 78 20 31 0
41 29 16 47 -10 8 -30 23 -43 35 -13 11 -39 25 -57 30 -18 5 -39 14 -46 21
-20 19 -165 47 -246 47 -85 0 -198 -26 -226 -52 -11 -10 -28 -18 -38 -18 -10
0 -18 -4 -18 -10 0 -5 -7 -10 -16 -10 -9 0 -12 -5 -8 -12 4 -6 3 -8 -4 -5 -10
7 -25 -4 -90 -62 -15 -13 -36 -31 -48 -40 -11 -9 -26 -26 -33 -39 -6 -12 -21
-22 -31 -22 -11 0 -20 -4 -20 -9 0 -5 -10 -13 -22 -17 -13 -3 -29 -11 -37 -17
-7 -6 -23 -13 -35 -14 -17 -2 -25 4 -33 29 -7 18 -9 46 -6 61 4 23 2 29 -16
34 -27 7 -27 15 0 31 19 12 20 15 5 31 -9 10 -18 32 -20 50 -2 19 -9 37 -16
41 -9 6 -9 12 0 26 8 13 9 35 3 69 -7 45 -11 50 -36 53 -27 3 -39 22 -13 22
22 0 26 35 5 48 -10 6 -19 26 -21 44 -2 28 -8 34 -33 39 -24 5 -27 7 -12 13
20 10 23 34 3 42 -7 3 -16 23 -20 45 -5 33 -10 39 -32 39 -24 0 -24 1 -10 22
14 20 14 23 -4 35 -10 7 -24 29 -30 49 -10 31 -15 35 -36 30 -24 -6 -33 7 -14
19 17 10 11 30 -12 40 -12 6 -25 21 -28 35 -5 19 -12 25 -33 25 -15 -1 -27 0
-27 1 0 2 4 14 10 28 6 17 6 26 0 26 -16 0 -60 43 -60 58 0 10 -7 12 -25 8
-23 -6 -25 -4 -19 19 4 18 2 25 -8 25 -17 0 -58 41 -58 58 0 18 -26 15 -46 -5
-17 -17 -17 -16 -11 14 6 28 3 34 -28 52 -19 11 -35 25 -35 31 0 14 -33 13
-48 -2 -9 -9 -12 -6 -12 15 0 20 -5 27 -19 27 -11 0 -28 11 -39 25 -21 26 -61
34 -63 13 -1 -7 -4 1 -8 17 -5 23 -12 31 -33 33 -15 2 -32 10 -38 18 -15 17
-42 18 -58 2 -9 -9 -12 -6 -12 15 0 23 -4 27 -30 27 -17 0 -39 6 -50 12 -15
10 -25 10 -37 2 -14 -9 -20 -7 -28 10 -8 15 -18 20 -37 18 -15 -2 -37 2 -48 8
-18 9 -25 8 -41 -6 -18 -16 -19 -16 -25 14 -6 29 -24 46 -24 22 0 -15 -39 -12
-56 5 -18 18 -44 9 -44 -16 0 -27 -18 -24 -22 4 -3 19 -8 22 -47 19 -27 -2
-47 2 -52 9 -5 9 -11 8 -23 -4 -9 -8 -16 -20 -16 -26 0 -21 -18 -11 -24 14 -7
28 -12 29 -39 14z m173 -389 c0 -5 21 -10 48 -10 26 0 88 -11 137 -25 83 -22
108 -29 188 -58 15 -5 27 -13 27 -18 0 -5 6 -9 14 -9 18 0 116 -51 116 -60 0
-4 27 -24 60 -45 33 -21 60 -42 60 -46 0 -5 6 -9 13 -9 6 0 32 -23 57 -52 55
-62 92 -98 102 -98 5 0 8 -6 8 -13 0 -7 14 -29 30 -47 17 -18 30 -39 30 -45 0
-6 13 -26 30 -45 16 -19 29 -40 30 -45 0 -6 11 -26 24 -45 13 -19 27 -50 31
-69 4 -19 20 -63 36 -99 16 -35 29 -76 29 -91 0 -15 7 -50 15 -77 8 -27 18
-84 21 -126 l7 -78 -25 0 c-24 0 -26 4 -30 63 -8 90 -55 293 -84 355 -13 29
-24 57 -24 63 0 6 -13 31 -30 56 -16 24 -30 48 -30 52 0 4 -9 16 -20 26 -11
10 -20 24 -20 32 0 7 -4 13 -10 13 -5 0 -10 9 -10 19 0 11 -13 31 -30 44 -16
14 -30 30 -30 35 0 5 -16 20 -35 33 -19 13 -35 29 -35 36 0 12 -13 27 -52 56
-82 62 -126 92 -167 113 -25 14 -48 28 -51 33 -8 12 -107 61 -124 61 -9 0 -35
8 -58 19 -76 33 -205 51 -373 51 -156 0 -224 -9 -335 -46 -25 -9 -58 -19 -75
-23 -42 -11 -119 -51 -128 -67 -4 -8 -16 -14 -25 -14 -9 0 -28 -9 -42 -20 -14
-11 -30 -20 -37 -20 -7 0 -17 -9 -23 -20 -6 -11 -15 -20 -21 -20 -15 0 -108
-73 -109 -85 0 -6 -31 -41 -68 -77 -37 -37 -78 -88 -92 -115 -13 -26 -36 -64
-52 -83 -15 -19 -28 -39 -28 -45 0 -6 -12 -32 -26 -59 -29 -55 -42 -91 -54
-151 -4 -22 -15 -66 -24 -98 -9 -32 -16 -77 -16 -100 0 -23 -3 -59 -6 -79 -6
-32 -11 -38 -32 -38 l-25 0 5 83 c5 78 44 243 75 315 8 18 23 57 32 85 16 45
81 161 100 177 8 7 29 41 40 65 14 30 230 245 247 245 7 0 78 53 82 62 2 4 40
26 85 49 98 50 329 119 398 119 27 0 49 5 49 10 0 6 45 10 115 10 70 0 115 -4
115 -10z m-184 -227 c8 -88 -2 -481 -13 -531 l-8 -34 -23 31 c-12 17 -22 35
-22 42 0 6 -14 35 -30 64 -17 29 -39 79 -49 111 -11 33 -36 97 -56 144 -52
117 -75 182 -70 190 3 4 23 10 46 13 23 3 45 11 50 18 4 7 39 16 81 19 40 4
76 8 80 9 3 0 10 -34 14 -76z m282 61 c17 -3 32 -9 32 -13 0 -5 17 -12 38 -15
69 -13 73 -15 65 -44 -3 -15 -19 -52 -35 -83 -15 -31 -28 -62 -28 -68 0 -6
-16 -40 -35 -75 -19 -35 -35 -76 -35 -91 0 -14 -11 -43 -25 -63 -14 -20 -25
-44 -25 -53 0 -9 -7 -22 -15 -29 -8 -7 -15 -17 -15 -22 0 -5 -11 -25 -24 -44
-21 -31 -25 -33 -32 -17 -8 20 -19 596 -11 617 5 13 60 13 145 0z m-672 -135
c7 -13 28 -58 48 -99 20 -42 36 -85 36 -96 0 -11 11 -42 23 -70 49 -102 94
-218 103 -263 l6 -34 -35 22 c-46 28 -97 76 -97 90 0 6 -5 11 -11 11 -10 0
-59 45 -59 55 0 1 -33 36 -72 77 -113 116 -168 177 -168 189 0 14 76 85 113
104 18 9 43 23 57 31 31 17 42 14 56 -17z m994 3 c73 -37 170 -118 170 -140 0
-7 -9 -17 -20 -24 -11 -7 -20 -18 -20 -25 0 -7 -4 -13 -8 -13 -5 0 -15 -11
-22 -25 -7 -14 -17 -25 -22 -25 -5 0 -25 -16 -45 -35 -20 -19 -40 -35 -45 -35
-4 0 -8 -4 -8 -10 0 -11 -96 -110 -106 -110 -3 0 -15 -11 -26 -26 -26 -33
-128 -108 -136 -100 -3 4 2 28 12 54 10 26 21 61 26 77 4 17 18 53 32 80 14
28 31 68 37 90 7 22 19 54 27 72 8 17 14 37 14 45 0 7 9 24 20 38 11 14 20 29
20 34 0 21 43 96 54 96 6 0 27 -8 46 -18z m-1219 -322 c5 0 9 -4 9 -10 0 -5
34 -44 75 -85 41 -41 75 -78 75 -82 0 -4 24 -31 53 -59 81 -81 116 -134 87
-134 -19 0 -123 30 -134 39 -6 5 -31 15 -55 22 -23 7 -45 19 -48 26 -3 7 -16
13 -29 13 -13 0 -24 4 -24 10 0 5 -22 16 -48 23 -26 8 -78 29 -115 46 -36 17
-70 31 -75 31 -4 0 -16 6 -26 13 -17 13 -17 15 2 58 11 24 32 57 46 72 14 15
26 30 26 33 0 3 9 15 21 27 11 12 25 33 30 46 9 23 11 22 65 -33 31 -31 60
-56 65 -56z m1539 25 c19 -25 43 -55 52 -67 10 -13 21 -27 25 -33 5 -5 13 -24
19 -41 l11 -31 -66 -27 c-89 -38 -118 -50 -174 -75 -26 -11 -54 -21 -61 -21
-8 0 -16 -6 -19 -13 -2 -7 -32 -21 -66 -31 -33 -10 -61 -21 -61 -25 0 -4 -24
-13 -52 -19 -29 -7 -64 -15 -77 -19 l-24 -6 24 33 c13 19 74 84 134 146 61 61
129 132 152 158 23 25 46 46 51 46 4 0 23 16 42 35 19 19 39 35 44 34 6 0 27
-20 46 -44z m-1820 -305 c0 -4 15 -13 33 -20 75 -28 183 -75 192 -82 5 -4 19
-8 31 -8 12 0 27 -7 34 -15 7 -8 19 -15 26 -15 20 0 106 -43 127 -63 10 -10
32 -23 48 -29 16 -5 29 -16 29 -24 0 -12 -51 -14 -315 -14 l-314 0 5 38 c8 68
36 197 47 217 5 11 15 23 20 27 12 7 37 -1 37 -12z m2003 -77 c17 -54 27 -110
27 -145 l0 -58 -257 0 c-257 0 -363 6 -363 20 0 4 15 15 33 23 17 9 42 25 54
36 12 12 27 21 33 21 6 0 18 4 28 10 36 20 129 60 139 60 6 0 49 17 95 38 45
21 102 44 126 52 23 7 42 17 42 22 0 4 3 8 8 8 4 0 20 -39 35 -87z m-918 -47
c34 -15 66 -35 73 -46 9 -15 52 -127 52 -137 0 -2 -110 -3 -245 -3 -276 0
-261 -5 -223 78 24 54 55 92 75 92 7 0 13 4 13 9 0 5 19 16 43 25 60 22 140
15 212 -18z"/>
<path d="M4165 1644 c-90 -23 -123 -39 -163 -83 -24 -25 -54 -70 -68 -98 -68
-146 7 -358 144 -402 23 -8 42 -18 42 -23 0 -4 40 -8 89 -8 66 0 90 4 94 14 3
7 17 16 31 20 82 20 146 115 154 229 l5 67 -142 0 -141 0 0 -50 0 -50 61 0
c52 0 60 -2 55 -16 -3 -9 -9 -27 -12 -40 -14 -54 -123 -73 -188 -31 -19 12
-35 30 -36 40 0 9 -4 17 -8 17 -5 0 -14 24 -20 53 -9 41 -8 64 3 110 7 33 15
60 17 61 2 1 17 14 35 28 17 14 47 28 67 32 48 9 112 -19 127 -57 9 -20 16
-26 28 -21 9 3 30 11 46 17 74 25 76 27 58 61 -21 40 -73 92 -104 101 -13 4
-29 11 -35 16 -13 10 -112 20 -139 13z"/>
<path d="M6599 1641 c-98 -20 -204 -112 -227 -195 -24 -91 -8 -241 31 -286 9
-11 17 -25 17 -30 0 -5 14 -16 30 -25 17 -9 30 -20 30 -25 0 -6 6 -10 13 -10
18 0 67 -24 67 -32 0 -5 41 -8 90 -8 50 0 90 4 90 8 0 4 17 14 38 21 85 31
152 130 168 251 l7 50 -147 0 -146 0 0 -50 0 -50 60 0 c56 0 60 -2 60 -22 -1
-27 -15 -47 -50 -71 -59 -41 -193 -3 -203 58 -3 16 -11 48 -18 71 -10 35 -10
49 5 95 27 86 34 95 90 114 51 17 53 17 98 -2 25 -12 54 -32 64 -46 17 -22 21
-23 49 -12 16 7 42 18 58 24 37 15 34 36 -15 90 -63 69 -166 101 -259 82z"/>
<path d="M4747 1613 c-4 -3 -7 -19 -7 -35 0 -16 -16 -60 -35 -98 -19 -38 -35
-77 -35 -85 0 -9 -13 -42 -29 -74 -15 -31 -34 -82 -41 -112 -7 -30 -21 -71
-31 -91 -32 -63 -28 -68 49 -68 l69 0 23 50 23 50 103 0 103 0 18 -50 18 -50
73 0 c67 0 73 2 67 18 -4 9 -14 35 -22 57 -7 22 -17 49 -22 60 -24 58 -31 78
-31 95 0 10 -13 47 -29 82 -16 35 -33 76 -36 91 -4 16 -18 50 -30 75 -12 26
-25 57 -29 70 -7 20 -13 22 -85 22 -43 0 -81 -3 -84 -7z"/>
<path d="M5210 1336 l0 -286 65 0 65 0 0 110 c0 61 4 110 9 110 11 0 41 -45
41 -63 0 -7 12 -24 26 -38 14 -13 37 -45 51 -71 l26 -48 84 0 c49 0 83 4 83
10 0 6 -4 10 -10 10 -5 0 -16 16 -24 35 -8 19 -22 38 -31 41 -8 3 -15 12 -15
19 0 7 -3 15 -8 17 -15 6 -81 105 -75 112 3 3 16 6 27 6 47 1 96 74 96 143 0
58 -10 83 -55 132 l-36 40 -160 4 -159 3 0 -286z m238 158 c16 -11 22 -24 22
-52 0 -20 -4 -42 -8 -49 -10 -16 -57 -33 -93 -33 l-29 0 0 73 c0 41 3 77 7 81
10 10 73 -2 101 -20z"/>
<path d="M5946 1612 c-3 -5 -8 -29 -12 -53 -4 -24 -18 -64 -31 -88 -12 -24
-23 -53 -23 -64 0 -10 -15 -49 -34 -86 -19 -36 -36 -77 -39 -91 -3 -14 -14
-48 -24 -76 -11 -27 -23 -62 -27 -77 l-6 -27 69 0 69 0 23 50 24 50 102 0 102
0 22 -50 21 -50 74 0 73 0 -15 28 c-7 15 -14 32 -14 38 0 6 -16 46 -35 88 -19
43 -35 88 -35 101 0 12 -11 47 -25 77 -14 29 -25 58 -25 65 0 7 -13 40 -29 75
-16 35 -32 71 -35 81 -4 14 -18 17 -85 17 -44 0 -82 -4 -85 -8z"/>
<path d="M7058 1335 l3 -286 157 3 157 3 1 53 2 52 -89 0 -89 0 0 60 0 60 80
0 80 0 0 55 0 55 -80 0 -80 0 0 55 0 55 84 0 c94 0 96 1 96 76 l0 44 -162 0
-163 0 3 -285z"/>
</g>
</svg>
